<?xml version="1.0" encoding="UTF-8" standalone="no"?>
<!-- Created with Inkscape (http://www.inkscape.org/) -->

<svg
   xmlns:dc="http://purl.org/dc/elements/1.1/"
   xmlns:cc="http://creativecommons.org/ns#"
   xmlns:rdf="http://www.w3.org/1999/02/22-rdf-syntax-ns#"
   xmlns:svg="http://www.w3.org/2000/svg"
   xmlns="http://www.w3.org/2000/svg"
   xmlns:sodipodi="http://sodipodi.sourceforge.net/DTD/sodipodi-0.dtd"
   xmlns:inkscape="http://www.inkscape.org/namespaces/inkscape"
   width="210mm"
   height="297mm"
   viewBox="0 0 210 297"
   version="1.1"
   id="svg8"
   enable-background="new"
   inkscape:version="0.92.3 (2405546, 2018-03-11)"
   sodipodi:docname="shield.svg">
  <defs
     id="defs2">
    <filter
       inkscape:collect="always"
       style="color-interpolation-filters:sRGB"
       id="filter156">
      <feBlend
         inkscape:collect="always"
         mode="multiply"
         in2="BackgroundImage"
         id="feBlend158" />
    </filter>
  </defs>
  <sodipodi:namedview
     id="base"
     pagecolor="#ffffff"
     bordercolor="#666666"
     borderopacity="1.0"
     inkscape:pageopacity="0.0"
     inkscape:pageshadow="2"
     inkscape:zoom="0.27856445"
     inkscape:cx="-1578.2404"
     inkscape:cy="4159.8381"
     inkscape:document-units="mm"
     inkscape:current-layer="layer1"
     showgrid="false"
     showborder="false"
     inkscape:pagecheckerboard="true"
     inkscape:snap-global="false"
     inkscape:window-width="1920"
     inkscape:window-height="1021"
     inkscape:window-x="0"
     inkscape:window-y="0"
     inkscape:window-maximized="1" />
  <metadata
     id="metadata5">
    <rdf:RDF>
      <cc:Work
         rdf:about="">
        <dc:format>image/svg+xml</dc:format>
        <dc:type
           rdf:resource="http://purl.org/dc/dcmitype/StillImage" />
        <dc:title></dc:title>
      </cc:Work>
    </rdf:RDF>
  </metadata>
  <g
     inkscape:label="Calque 1"
     inkscape:groupmode="layer"
     id="layer1">
    <ellipse
       ry="387.52252"
       rx="236.50272"
       cy="-827.5752"
       cx="545.19098"
       id="ellipse34-3"
       style="opacity:1;fill:#ffe495;fill-opacity:1;fill-rule:nonzero;stroke:none;stroke-width:20;stroke-linecap:round;stroke-linejoin:bevel;stroke-miterlimit:4;stroke-dasharray:none;stroke-dashoffset:0;stroke-opacity:1;paint-order:markers stroke fill" />
    <g
       id="g985"
       inkscape:export-xdpi="39.700001"
       inkscape:export-ydpi="39.700001">
      <g
         id="g976">
        <g
           id="g969">
          <path
             style="opacity:1;fill:#ffe495;fill-opacity:1;fill-rule:nonzero;stroke:none;stroke-width:20;stroke-linecap:round;stroke-linejoin:bevel;stroke-miterlimit:4;stroke-dasharray:none;stroke-dashoffset:0;stroke-opacity:1;paint-order:markers stroke fill"
             d="m -343.83145,-1026.0855 a 387.52253,236.50271 0 0 0 -178.00257,26.50847 236.50271,387.52253 0 0 0 -1.51154,39.02861 236.50271,387.52253 0 0 0 182.30257,376.77907 236.50271,387.52253 0 0 0 182.42452,-376.77907 236.50271,387.52253 0 0 0 -1.15806,-37.09591 387.52253,236.50271 0 0 0 -184.05492,-28.44117 z"
             id="path44"
             inkscape:connector-curvature="0" />
          <path
             inkscape:connector-curvature="0"
             id="path32"
             d="m -343.83145,-1026.0855 a 387.52253,236.50271 0 0 0 -178.00257,26.50846 236.50271,387.52253 0 0 0 -1.51154,39.02863 236.50271,387.52253 0 0 0 182.30257,376.77907 236.50271,387.52253 0 0 0 182.42452,-376.77907 236.50271,387.52253 0 0 0 -1.15807,-37.09593 387.52253,236.50271 0 0 0 -184.05491,-28.44116 z m 0.37104,24.0476 a 337.06387,205.70809 0 0 1 160.08945,24.73806 205.70809,337.06387 0 0 1 1.00717,32.26573 205.70809,337.06387 0 0 1 -158.67145,327.71952 205.70809,337.06387 0 0 1 -158.565,-327.71952 205.70809,337.06387 0 0 1 1.31466,-33.94676 337.06387,205.70809 0 0 1 154.82517,-23.05703 z"
             style="opacity:1;fill:#ffbe29;fill-opacity:1;fill-rule:nonzero;stroke:none;stroke-width:20;stroke-linecap:round;stroke-linejoin:bevel;stroke-miterlimit:4;stroke-dasharray:none;stroke-dashoffset:0;stroke-opacity:1;paint-order:markers stroke fill" />
          <path
             id="path48"
             d="m -343.8312,-1026.0857 a 387.52253,236.50271 0 0 0 -178.00259,26.50848 236.50271,387.52253 0 0 0 -1.51151,39.02863 236.50271,387.52253 0 0 0 182.30255,376.77907 236.50271,387.52253 0 0 0 182.42453,-376.77907 236.50271,387.52253 0 0 0 -1.15807,-37.09593 387.52253,236.50271 0 0 0 -184.05491,-28.44118 z m 0.12195,9.4982 a 370.87955,226.3456 0 0 1 176.15049,27.21999 226.3456,370.87955 0 0 1 1.10846,35.50275 226.3456,370.87955 0 0 1 -174.58986,360.5971 226.3456,370.87955 0 0 1 -174.47358,-360.5971 226.3456,370.87955 0 0 1 1.44693,-37.35277 370.87955,226.3456 0 0 1 170.35756,-25.36997 z"
             style="opacity:1;fill:#6a4900;fill-opacity:1;fill-rule:nonzero;stroke:none;stroke-width:20;stroke-linecap:round;stroke-linejoin:bevel;stroke-miterlimit:4;stroke-dasharray:none;stroke-dashoffset:0;stroke-opacity:1;paint-order:markers stroke fill"
             inkscape:connector-curvature="0" />
          <path
             inkscape:connector-curvature="0"
             id="ellipse34"
             d="m -389.2691,-688.46208 a 141.98295,232.64678 45 0 0 48.89981,25.40569 210.19044,344.40845 34.868418 0 1 -11.93922,-7.32982 210.19044,344.40845 34.868418 0 1 -63.14989,-119.64164 141.98295,232.64678 45 0 0 26.1893,101.56577 z"
             style="opacity:1;fill:#fffdf6;fill-opacity:1;fill-rule:nonzero;stroke:none;stroke-width:12.0068779;stroke-linecap:round;stroke-linejoin:bevel;stroke-miterlimit:4;stroke-dasharray:none;stroke-dashoffset:0;stroke-opacity:1;paint-order:markers stroke fill" />
        </g>
      </g>
      <path
         inkscape:connector-curvature="0"
         id="path91"
         transform="scale(0.26458333)"
         d="m -1295.7266,-3878.0078 a 1693.2936,1035.543 62.806395 0 1 -27.7422,1657.0332 893.86851,1464.6521 0 0 0 34.4883,14.6016 893.86851,1464.6521 0 0 0 689.47855,-1424.0469 893.86851,1464.6521 0 0 0 -4.37696,-140.2051 1464.6521,893.86851 0 0 0 -691.84769,-107.3828 z"
         style="opacity:1;fill:#ffe495;fill-opacity:1;fill-rule:nonzero;stroke:none;stroke-width:75.59055328;stroke-linecap:round;stroke-linejoin:bevel;stroke-miterlimit:4;stroke-dasharray:none;stroke-dashoffset:0;stroke-opacity:1;paint-order:markers stroke fill;filter:url(#filter156)" />
    </g>
  </g>
</svg>
