<?xml version="1.0" encoding="UTF-8" standalone="no"?>
<!-- Created with Inkscape (http://www.inkscape.org/) -->

<svg
   xmlns:dc="http://purl.org/dc/elements/1.1/"
   xmlns:cc="http://creativecommons.org/ns#"
   xmlns:rdf="http://www.w3.org/1999/02/22-rdf-syntax-ns#"
   xmlns:svg="http://www.w3.org/2000/svg"
   xmlns="http://www.w3.org/2000/svg"
   xmlns:sodipodi="http://sodipodi.sourceforge.net/DTD/sodipodi-0.dtd"
   xmlns:inkscape="http://www.inkscape.org/namespaces/inkscape"
   width="210mm"
   height="297mm"
   viewBox="0 0 210 297"
   version="1.1"
   id="svg8"
   sodipodi:docname="snowflake.svg"
   inkscape:version="0.92.3 (2405546, 2018-03-11)">
  <defs
     id="defs2" />
  <sodipodi:namedview
     id="base"
     pagecolor="#ffffff"
     bordercolor="#666666"
     borderopacity="1.0"
     inkscape:pageopacity="0.0"
     inkscape:pageshadow="2"
     inkscape:zoom="4.4570312"
     inkscape:cx="-36.896662"
     inkscape:cy="961.20693"
     inkscape:document-units="mm"
     inkscape:current-layer="layer1"
     showgrid="false"
     inkscape:pagecheckerboard="true"
     showborder="false"
     showguides="false"
     objecttolerance="10000"
     inkscape:snap-path-clip="true"
     inkscape:snap-path-mask="true"
     guidetolerance="10000"
     inkscape:snap-perpendicular="true"
     inkscape:snap-tangential="true"
     inkscape:snap-bbox="true"
     inkscape:snap-bbox-midpoints="true"
     inkscape:window-width="1920"
     inkscape:window-height="1021"
     inkscape:window-x="0"
     inkscape:window-y="0"
     inkscape:window-maximized="1"
     inkscape:snap-global="false">
    <inkscape:grid
       type="xygrid"
       id="grid815"
       spacingx="2.1166667"
       spacingy="2.1166667" />
  </sodipodi:namedview>
  <metadata
     id="metadata5">
    <rdf:RDF>
      <cc:Work
         rdf:about="">
        <dc:format>image/svg+xml</dc:format>
        <dc:type
           rdf:resource="http://purl.org/dc/dcmitype/StillImage" />
        <dc:title></dc:title>
      </cc:Work>
    </rdf:RDF>
  </metadata>
  <g
     inkscape:label="Calque 1"
     inkscape:groupmode="layer"
     id="layer1">
    <path
       style="opacity:1;fill:#aae6fa;fill-opacity:0.84545457;fill-rule:nonzero;stroke:#008ab6;stroke-width:2.00000003;stroke-linecap:round;stroke-linejoin:round;stroke-miterlimit:4;stroke-dasharray:none;stroke-dashoffset:0;stroke-opacity:1;paint-order:stroke markers fill"
       d="M -48 130.51953 L -48.90625 131.71094 L -48.90625 137.83008 L -51.548828 135.18359 L -52.958984 137.03906 L -48.90625 141.08789 L -48.90625 154.86133 L -57.128906 142.52344 L -58.675781 144.55664 L -48.90625 159.21484 L -48.90625 171.10156 L -53.283203 165.87109 A 0.75007499 0.75007499 0 0 0 -53.947266 165.60547 A 0.75007499 0.75007499 0 0 0 -54.595703 166.22461 L -55.597656 171.95117 L -65.916016 154.07617 L -66.933594 155.41406 L -67.902344 155.53711 L -57.328125 173.84961 L -63.742188 171.50391 A 0.75007499 0.75007499 0 0 0 -64.703125 172.46289 L -62.546875 178.36133 L -71.878906 172.97266 L -79.757812 157.04688 L -81.552734 157.27539 L -74.550781 171.43164 L -87.578125 163.91016 L -89.095703 158.23438 L -90.808594 158.45312 L -89.669922 162.70312 L -95.90625 159.10156 L -97.960938 159.36328 L -97.398438 160.70508 L -91.097656 164.3418 L -95.392578 165.49023 L -94.726562 167.07617 L -89.017578 165.54492 L -76.160156 172.9668 L -91.833984 173.97656 L -91.136719 175.63867 L -73.501953 174.5 L -63.222656 180.43555 L -69.988281 181.61719 A 0.75007499 0.75007499 0 0 0 -70.333984 182.92969 L -65.044922 187.35547 L -86.226562 187.35352 L -85.867188 188.20898 L -86.226562 189.06641 L -65.046875 189.06445 L -70.333984 193.48633 A 0.75007499 0.75007499 0 0 0 -69.988281 194.80078 L -63.222656 195.98242 L -73.501953 201.91797 L -91.136719 200.7793 L -91.835938 202.44336 L -76.160156 203.45312 L -89.017578 210.87305 L -94.728516 209.3418 L -95.392578 210.92773 L -91.097656 212.07617 L -97.400391 215.71484 L -97.960938 217.05273 L -95.902344 217.31445 L -89.669922 213.7168 L -90.806641 217.96289 L -89.095703 218.18164 L -87.578125 212.50781 L -74.550781 204.98633 L -81.550781 219.14062 L -79.755859 219.36914 L -71.878906 203.44531 L -62.546875 198.05664 L -64.703125 203.95508 A 0.75007499 0.75007499 0 0 0 -63.742188 204.91406 L -57.326172 202.56641 L -67.900391 220.87891 L -66.933594 221.00195 L -65.916016 222.33984 L -55.597656 204.46484 L -54.595703 210.19141 A 0.75007499 0.75007499 0 0 0 -53.283203 210.54688 L -48.90625 205.31445 L -48.90625 217.20312 L -58.675781 231.85938 L -57.128906 233.89453 L -48.90625 221.55859 L -48.90625 235.33008 L -52.957031 239.37891 L -51.546875 241.23242 L -48.90625 238.58984 L -48.90625 244.70508 L -48 245.89648 L -46.34375 243.71875 L -46.34375 238.58789 L -44.128906 240.80664 L -42.71875 238.95312 L -46.34375 235.33008 L -46.34375 221.55664 L -38.470703 233.36914 L -36.925781 231.33398 L -46.34375 217.20312 L -46.34375 206.20508 L -42.71875 210.54688 A 0.75007499 0.75007499 0 0 0 -41.404297 210.19141 L -40.230469 203.4668 L -29.658203 221.7793 L -29.066406 221.00195 L -27.400391 220.78906 L -37.722656 202.91602 L -32.259766 204.91406 A 0.75007499 0.75007499 0 0 0 -31.298828 203.95508 L -33.65625 197.50586 L -23.371094 203.44531 L -15.539062 219.2793 L -13.742188 219.05078 L -20.699219 204.98633 L -7.671875 212.50781 L -6.1796875 218.08789 L -4.4667969 217.87109 L -5.5800781 213.71484 L 0.51953125 217.23633 L 1.9609375 217.05273 L 1.1601562 215.14258 L -4.1523438 212.07617 L -0.53125 211.10938 L -1.1972656 209.52148 L -6.2324219 210.87305 L -19.089844 203.45117 L -4.1445312 202.48828 L -4.8417969 200.82617 L -21.75 201.91797 L -32.203125 195.88281 L -26.013672 194.80078 A 0.75007499 0.75007499 0 0 0 -25.660156 193.48633 L -30.955078 189.0625 L -9.7734375 189.06445 L -10.132812 188.20898 L -9.7734375 187.35156 L -30.955078 187.35352 L -25.660156 182.92969 A 0.75007499 0.75007499 0 0 0 -26.013672 181.61719 L -32.203125 180.53516 L -21.75 174.5 L -4.84375 175.5918 L -4.1464844 173.92773 L -19.089844 172.96484 L -6.2324219 165.54492 L -1.1972656 166.89648 L -0.53125 165.30859 L -4.1523438 164.3418 L 1.1601562 161.27539 L 1.9609375 159.36328 L 0.51953125 159.17969 L -5.5800781 162.70117 L -4.4667969 158.54492 L -6.1777344 158.32812 L -7.671875 163.91016 L -20.699219 171.43164 L -13.742188 157.36523 L -15.537109 157.13672 L -23.371094 172.97266 L -33.65625 178.91211 L -31.298828 172.46289 A 0.75007499 0.75007499 0 0 0 -32.259766 171.50391 L -37.720703 173.50195 L -27.400391 155.62695 L -29.066406 155.41406 L -29.658203 154.63672 L -40.228516 172.95117 L -41.404297 166.22461 A 0.75007499 0.75007499 0 0 0 -42.71875 165.87109 L -46.34375 170.21094 L -46.34375 159.21484 L -36.923828 145.08203 L -38.470703 143.04883 L -46.34375 154.85938 L -46.34375 141.08789 L -42.716797 137.46484 L -44.128906 135.60938 L -46.34375 137.82812 L -46.34375 132.69727 L -48 130.51953 z M -53.392578 168.07031 L -48.90625 173.43555 L -48.90625 183.54297 L -54.425781 173.98242 L -53.392578 168.07031 z M -42.601562 168.07031 L -41.396484 174.97266 L -46.34375 183.54297 L -46.34375 172.54688 L -42.601562 168.07031 z M -62.738281 173.4668 L -56.158203 175.87695 L -55.4375 177.12305 L -50.8125 185.13867 L -60.515625 179.53516 L -62.738281 173.4668 z M -33.255859 173.4668 L -35.677734 180.07812 L -44.4375 185.13672 L -39.8125 177.12305 L -38.892578 175.53125 L -33.255859 173.4668 z M -61.199219 181.60352 L -51.236328 187.35547 L -62.701172 187.35547 L -68.134766 182.8125 L -61.199219 181.60352 z M -34.224609 181.70312 L -27.867188 182.8125 L -33.298828 187.35352 L -44.013672 187.35547 L -34.224609 181.70312 z M -51.236328 189.0625 L -61.199219 194.81445 L -68.134766 193.60547 L -62.703125 189.06445 L -51.236328 189.0625 z M -44.013672 189.0625 L -33.300781 189.0625 L -27.867188 193.60547 L -34.224609 194.71484 L -44.013672 189.0625 z M -44.4375 191.2793 L -35.675781 196.33789 L -33.255859 202.95117 L -38.892578 200.88672 L -39.8125 199.29492 L -44.4375 191.2793 z M -50.8125 191.28125 L -55.4375 199.29492 L -56.15625 200.54102 L -62.738281 202.95117 L -60.517578 196.88477 L -50.8125 191.28125 z M -48.90625 192.875 L -48.90625 202.98047 L -53.392578 208.3457 L -54.425781 202.43555 L -48.90625 192.875 z M -46.34375 192.875 L -41.396484 201.44531 L -42.601562 208.3457 L -46.34375 203.87109 L -46.34375 192.875 z "
       id="path978"
       transform="scale(0.26458333)"
       inkscape:export-xdpi="753.52002"
       inkscape:export-ydpi="753.52002" />
  </g>
</svg>
